<svg width="4397" height="1013" viewBox="0 0 4397 1013" fill="none" xmlns="http://www.w3.org/2000/svg">
<g clip-path="url(#clip0_1816_300)">
<path d="M1352.92 375.095V819.859C1352.92 855.863 1324.1 886.07 1285.96 886.07C1247.83 886.07 1224.77 855.863 1224.77 819.859V805.925C1175.11 848.845 1117.35 874.475 1048.07 874.475C893.318 874.475 768.605 749.071 768.605 594.578C768.605 440.085 893.318 313.562 1048.07 313.562C1117.35 313.562 1175.11 340.311 1224.77 380.892V375.095C1224.77 339.091 1247.83 308.884 1285.96 308.884C1324.1 308.884 1352.92 339.091 1352.92 375.095ZM1192.4 594.578C1192.4 514.433 1126.56 449.442 1048.07 449.442C969.581 449.442 902.522 514.433 902.522 594.578C902.522 674.723 968.368 738.595 1048.07 738.595C1127.77 738.595 1192.4 674.723 1192.4 594.578Z" fill="#273376"/>
<path d="M1597.09 891.867C1523.15 891.867 1449.32 861.66 1411.18 825.656C1383.47 800.128 1381.14 755.987 1407.74 728.119C1433.13 699.133 1477.03 697.912 1504.74 723.441C1525.48 743.172 1602.85 769.921 1646.75 740.832C1658.28 733.916 1665.26 721.101 1665.26 708.286C1665.26 692.013 1651.4 680.419 1639.87 675.74C1629.46 669.943 1611.05 669.943 1590.21 669.943C1562.5 669.943 1531.34 668.824 1498.98 657.128C1438.9 637.397 1390.45 574.644 1385.8 514.331C1380.03 441.204 1411.18 395.843 1437.78 370.315C1495.54 316.919 1579.79 308.782 1641.09 319.258C1687.31 327.394 1721.9 343.667 1750.83 370.315C1778.54 395.843 1780.87 439.984 1755.48 467.851C1740.51 484.125 1718.56 492.261 1696.62 489.922C1686.2 488.803 1675.78 485.243 1666.58 479.446C1650.39 467.851 1638.86 459.715 1618.03 456.257C1583.33 450.46 1518.7 452.799 1523.35 502.737C1524.47 508.534 1534.88 523.689 1544.19 527.147C1555.72 530.605 1573.02 530.605 1591.53 530.605C1621.57 531.723 1659.7 531.723 1697.73 549.217C1761.25 578.305 1802.82 640.956 1802.82 708.286C1802.82 767.48 1772.78 823.215 1723.12 856.88C1683.87 882.408 1641.09 891.765 1597.19 891.765L1597.09 891.867Z" fill="#273376"/>
<path d="M2360.03 824.741C2360.03 863.084 2328.88 894.41 2290.74 894.41C2252.61 894.41 2220.35 863.084 2220.35 824.741V570.372C2220.35 504.161 2167.25 450.765 2101.4 450.765C2035.55 450.765 1982.45 504.161 1982.45 570.372V824.741C1982.45 863.084 1951.3 894.41 1912.06 894.41C1872.81 894.41 1841.56 863.084 1841.56 824.741V83.8064C1841.56 45.4629 1873.92 12.9167 1912.06 12.9167C1950.19 12.9167 1982.45 45.4629 1982.45 83.8064V339.294C2018.26 320.682 2058.72 310.206 2101.4 310.206C2244.62 310.206 2360.13 426.355 2360.13 570.372V824.741H2360.03Z" fill="#273376"/>
<path d="M2880.63 860.542C2866.77 874.475 2847.15 882.612 2828.64 882.612C2811.34 882.612 2795.16 876.815 2781.3 864L2545.73 645.737V818.74C2545.73 858.202 2514.58 889.528 2475.34 889.528C2436.09 889.528 2404.84 858.202 2404.84 818.74V78.9246C2404.84 39.4623 2435.99 8.1366 2475.34 8.1366C2514.68 8.1366 2545.73 39.4623 2545.73 78.9246V471.411L2773.21 313.461C2805.58 291.39 2849.47 298.408 2871.42 330.852C2894.48 362.178 2886.39 406.319 2855.24 429.508L2662.35 560.71L2877.19 759.242C2904.9 785.99 2907.23 830.03 2880.63 860.236V860.542Z" fill="#CF202C"/>
<path d="M3461.2 370.416V815.18C3461.2 851.184 3432.37 881.391 3394.24 881.391C3356.11 881.391 3333.05 851.184 3333.05 815.18V801.246C3283.39 844.167 3225.63 869.797 3156.35 869.797C3001.6 869.797 2876.88 744.392 2876.88 589.9C2876.88 435.407 3001.6 308.884 3156.35 308.884C3225.63 308.884 3283.39 335.633 3333.05 376.214V370.416C3333.05 334.412 3356.11 304.205 3394.24 304.205C3432.37 304.205 3461.2 334.412 3461.2 370.416ZM3300.68 589.9C3300.68 509.755 3234.84 444.764 3156.35 444.764C3077.86 444.764 3010.8 509.755 3010.8 589.9C3010.8 670.045 3076.65 733.917 3156.35 733.917C3236.05 733.917 3300.68 670.045 3300.68 589.9Z" fill="#CF202C"/>
<path d="M3988.78 480.768C3962.18 508.636 3919.49 510.975 3890.56 484.226C3865.18 459.817 3830.48 445.883 3794.68 445.883C3716.19 445.883 3651.46 513.213 3651.46 595.697V815.18C3651.46 853.524 3620.3 884.849 3582.17 884.849C3544.04 884.849 3512.89 853.524 3512.89 815.18V370.416C3512.89 332.073 3544.04 301.866 3582.17 301.866C3613.32 301.866 3638.71 321.597 3648.02 349.465C3690.7 322.716 3741.58 306.544 3794.68 306.544C3866.29 306.544 3933.25 334.412 3985.24 383.231C4012.95 408.76 4015.28 452.901 3988.68 480.768H3988.78Z" fill="#CF202C"/>
<path d="M4391.23 811.722C4391.23 851.185 4360.08 881.392 4321.95 881.392C4311.53 881.392 4302.33 881.391 4291.91 880.273C4253.78 874.475 4216.86 858.202 4190.26 827.995C4167.2 801.247 4151.01 759.445 4151.01 723.441V430.83H4101.35C4063.22 430.83 4032.07 399.504 4032.07 361.161C4032.07 322.817 4063.22 291.492 4101.35 291.492H4151.01V69.6692C4151.01 31.3257 4182.17 0 4220.3 0C4258.43 0 4289.58 31.3257 4289.58 69.6692V291.492H4327.72C4365.85 291.492 4397 322.817 4397 361.161C4397 399.504 4365.85 430.83 4327.72 430.83H4289.58V707.168C4291.91 716.423 4289.58 730.357 4297.67 737.375C4303.44 743.172 4313.86 742.053 4321.95 742.053C4360.08 742.053 4391.23 773.379 4391.23 811.722Z" fill="#CF202C"/>
<path d="M547.198 886.07C470.934 886.07 400.537 857.083 346.221 804.806C290.794 750.189 259.641 678.181 257.314 600.477C256.202 523.79 283.916 449.544 339.343 393.809C392.445 338.073 464.056 306.748 541.432 304.409C618.809 303.29 691.532 332.276 746.96 386.893C774.674 412.421 775.888 457.681 749.287 484.43C722.685 512.297 678.788 513.416 651.074 486.769C622.248 458.901 584.116 443.849 543.658 443.849C503.199 443.849 466.281 461.24 437.455 490.329C410.853 519.417 394.771 557.659 395.884 598.341C395.884 637.804 413.18 677.266 442.107 704.015C471.035 733.001 509.066 748.155 548.31 746.935C586.442 746.935 622.248 731.882 649.962 706.252C676.563 679.503 721.573 681.843 746.96 709.71C773.561 737.578 771.235 781.719 743.521 808.366C691.532 857.185 623.461 885.053 551.85 886.171H547.198V886.07Z" fill="#273376"/>
<path d="M539.816 860.338C517.159 860.745 492.479 857.287 468.204 851.184C444.334 845.184 421.374 836.03 399.324 824.334C373.836 810.705 350.269 793.822 329.129 773.277C293.627 739.002 266.621 698.116 248.415 650.517C241.74 633.023 236.885 614.818 232.232 596.612C218.577 543.42 196.022 495.719 159.205 456.765C133.514 429.61 103.372 410.387 68.9829 399.301C57.6546 395.64 46.0229 393.097 34.4923 390.453C25.4903 388.418 17.3987 384.96 11.1277 377.332C-2.42583 360.754 -4.14531 338.175 9.4082 319.97C18.7136 307.561 31.0533 302.578 45.5172 304.714C72.6242 308.782 98.6186 317.224 123.703 329.022C161.733 346.82 195.213 371.84 224.039 403.98C259.238 443.137 284.12 489.006 299.999 540.674C304.45 555.218 308.293 570.067 312.137 584.814C328.32 646.652 360.586 695.878 410.45 731.475C436.344 749.986 464.563 762.191 495.008 768.802C519.89 774.192 544.873 775.413 569.957 771.955C611.427 766.259 648.952 749.783 682.33 722.525C684.049 721.203 685.769 719.881 687.387 718.355C694.467 712.049 702.761 708.795 711.662 708.388C722.788 707.981 732.599 712.151 740.691 720.491C754.345 734.527 756.773 756.597 747.67 773.786C744.736 779.278 740.488 783.549 735.937 787.516C716.112 804.603 694.467 818.638 671.406 830.131C646.221 842.743 619.721 850.981 592.31 855.863C571.98 859.524 560.854 860.541 539.714 860.338H539.816Z" fill="#273376"/>
<path d="M700.433 920.243C723.191 919.633 746.96 938.347 746.757 967.334C746.555 993.574 725.719 1012.69 700.837 1013C674.034 1013.2 654.816 991.845 654.31 966.825C653.906 943.433 673.225 920.04 700.433 920.243Z" fill="#CF202C"/>
<path d="M384.151 1012.9C354.515 1012.9 338.332 988.082 338.231 967.232C338.028 942.721 357.651 920.345 384.353 920.142C408.426 919.938 430.678 940.483 430.779 966.52C430.779 991.54 411.359 1013 384.252 1012.9H384.151Z" fill="#CF202C"/>
</g>
<defs>
<clipPath id="clip0_1816_300">
<rect width="4397" height="1013" fill="white"/>
</clipPath>
</defs>
</svg>
